<mxfile host="app.diagrams.net" modified="2024-04-22T13:17:51.032Z" agent="Mozilla/5.0 (Macintosh; Intel Mac OS X 10_15_7) AppleWebKit/537.36 (KHTML, like Gecko) Chrome/123.0.0.0 Safari/537.36" etag="U4mVwjjlWWutSo6jvBuW" version="24.2.7" type="github">
  <diagram id="C5RBs43oDa-KdzZeNtuy" name="Page-1">
    <mxGraphModel dx="887" dy="520" grid="1" gridSize="10" guides="1" tooltips="1" connect="1" arrows="1" fold="1" page="1" pageScale="1" pageWidth="827" pageHeight="1169" math="0" shadow="0">
      <root>
        <mxCell id="WIyWlLk6GJQsqaUBKTNV-0" />
        <mxCell id="WIyWlLk6GJQsqaUBKTNV-1" parent="WIyWlLk6GJQsqaUBKTNV-0" />
        <mxCell id="Af25B5TgeSPkg5sPbAyL-0" value="A" style="whiteSpace=wrap;strokeWidth=2;" vertex="1" parent="WIyWlLk6GJQsqaUBKTNV-1">
          <mxGeometry x="157" y="520" width="24" height="34" as="geometry" />
        </mxCell>
        <mxCell id="Af25B5TgeSPkg5sPbAyL-1" value="B" style="whiteSpace=wrap;strokeWidth=2;" vertex="1" parent="WIyWlLk6GJQsqaUBKTNV-1">
          <mxGeometry x="120" y="604" width="24" height="34" as="geometry" />
        </mxCell>
        <mxCell id="Af25B5TgeSPkg5sPbAyL-2" value="C" style="whiteSpace=wrap;strokeWidth=2;" vertex="1" parent="WIyWlLk6GJQsqaUBKTNV-1">
          <mxGeometry x="194" y="604" width="25" height="34" as="geometry" />
        </mxCell>
        <mxCell id="Af25B5TgeSPkg5sPbAyL-3" value="D" style="whiteSpace=wrap;strokeWidth=2;" vertex="1" parent="WIyWlLk6GJQsqaUBKTNV-1">
          <mxGeometry x="157" y="687" width="25" height="34" as="geometry" />
        </mxCell>
        <mxCell id="Af25B5TgeSPkg5sPbAyL-4" value="" style="curved=1;startArrow=none;endArrow=block;exitX=-0.00146484375;exitY=0.8964527779152031;entryX=0.5011393229166666;entryY=-0.014705882352941176;rounded=0;" edge="1" parent="WIyWlLk6GJQsqaUBKTNV-1" source="Af25B5TgeSPkg5sPbAyL-0" target="Af25B5TgeSPkg5sPbAyL-1">
          <mxGeometry relative="1" as="geometry">
            <Array as="points">
              <mxPoint x="132" y="579" />
            </Array>
          </mxGeometry>
        </mxCell>
        <mxCell id="Af25B5TgeSPkg5sPbAyL-5" value="" style="curved=1;startArrow=none;endArrow=block;exitX=1.0167643229166667;exitY=0.8964527779152031;entryX=0.49359375;entryY=-0.014705882352941176;rounded=0;" edge="1" parent="WIyWlLk6GJQsqaUBKTNV-1" source="Af25B5TgeSPkg5sPbAyL-0" target="Af25B5TgeSPkg5sPbAyL-2">
          <mxGeometry relative="1" as="geometry">
            <Array as="points">
              <mxPoint x="206" y="579" />
            </Array>
          </mxGeometry>
        </mxCell>
        <mxCell id="Af25B5TgeSPkg5sPbAyL-6" value="" style="curved=1;startArrow=none;endArrow=block;exitX=0.5011393229166666;exitY=0.9705882352941176;entryX=-0.00890625;entryY=0.08264483253351784;rounded=0;" edge="1" parent="WIyWlLk6GJQsqaUBKTNV-1" source="Af25B5TgeSPkg5sPbAyL-1" target="Af25B5TgeSPkg5sPbAyL-3">
          <mxGeometry relative="1" as="geometry">
            <Array as="points">
              <mxPoint x="132" y="662" />
            </Array>
          </mxGeometry>
        </mxCell>
        <mxCell id="Af25B5TgeSPkg5sPbAyL-7" value="" style="curved=1;startArrow=none;endArrow=block;exitX=0.49359375;exitY=0.9705882352941176;entryX=0.98359375;entryY=0.08264483253351784;rounded=0;" edge="1" parent="WIyWlLk6GJQsqaUBKTNV-1" source="Af25B5TgeSPkg5sPbAyL-2" target="Af25B5TgeSPkg5sPbAyL-3">
          <mxGeometry relative="1" as="geometry">
            <Array as="points">
              <mxPoint x="206" y="662" />
            </Array>
          </mxGeometry>
        </mxCell>
      </root>
    </mxGraphModel>
  </diagram>
</mxfile>
